<svg id="visual" viewBox="0 0 900 600" width="900" height="600" xmlns="http://www.w3.org/2000/svg" xmlns:xlink="http://www.w3.org/1999/xlink" version="1.1"><rect x="0" y="0" width="900" height="600" fill="#add8e6"></rect><path d="M0 148L25 141.2C50 134.3 100 120.7 150 123.5C200 126.3 250 145.7 300 159.3C350 173 400 181 450 178C500 175 550 161 600 159C650 157 700 167 750 163.3C800 159.7 850 142.3 875 133.7L900 125L900 0L875 0C850 0 800 0 750 0C700 0 650 0 600 0C550 0 500 0 450 0C400 0 350 0 300 0C250 0 200 0 150 0C100 0 50 0 25 0L0 0Z" fill="#FFFFFF" stroke-linecap="round" stroke-linejoin="miter"></path></svg>